<svg width="411" height="411" viewBox="0 0 411 411" fill="none" xmlns="http://www.w3.org/2000/svg" style="">
<path stroke="#F9FAFF" stroke-width="29" d="M14.5,205.5A191,191 0,1,1 396.5,205.5A191,191 0,1,1 14.5,205.5" class="CeDBGYVG_0"></path>
<path stroke="#F9FAFF" stroke-width="28" d="M162,142.5A43.5,43.5 0,1,1 249,142.5A43.5,43.5 0,1,1 162,142.5" class="CeDBGYVG_1"></path>
<path d="M90.6808 357.573C88.9666 341.264 90.7452 324.776 95.8982 309.207C101.051 293.639 109.461 279.346 120.567 267.28C131.673 255.214 145.221 245.651 160.31 239.228C175.4 232.805 191.683 229.668 208.079 230.028C224.474 230.387 240.605 234.234 255.398 241.312C270.192 248.39 283.308 258.537 293.875 271.078C304.442 283.619 312.217 298.267 316.683 314.046C321.149 329.826 322.203 346.375 319.776 362.594" stroke="#F9FAFF" stroke-width="29" class="CeDBGYVG_2"></path>
<style data-made-with="vivus-instant">.CeDBGYVG_0{stroke-dasharray:1201 1203;stroke-dashoffset:1202;animation:CeDBGYVG_draw 1333ms ease-out 0ms forwards;}.CeDBGYVG_1{stroke-dasharray:274 276;stroke-dashoffset:275;animation:CeDBGYVG_draw 1333ms ease-out 333ms forwards;}.CeDBGYVG_2{stroke-dasharray:393 395;stroke-dashoffset:394;animation:CeDBGYVG_draw 1333ms ease-out 666ms forwards;}@keyframes CeDBGYVG_draw{100%{stroke-dashoffset:0;}}@keyframes CeDBGYVG_fade{0%{stroke-opacity:1;}93.54838709677419%{stroke-opacity:1;}100%{stroke-opacity:0;}}</style></svg>
